<svg width="10" height="11" viewBox="0 0 10 11" fill="none" xmlns="http://www.w3.org/2000/svg">
<path d="M5.91616 5.01071L9.80996 1.11679C10.0634 0.863512 10.0634 0.453988 9.80996 0.200705C9.55668 -0.0525786 9.14715 -0.0525786 8.89387 0.200705L4.99995 4.09462L1.10614 0.200705C0.852741 -0.0525786 0.443335 -0.0525786 0.190052 0.200705C-0.0633505 0.453988 -0.0633505 0.863512 0.190052 1.11679L4.08386 5.01071L0.190052 8.90463C-0.0633505 9.15791 -0.0633505 9.56744 0.190052 9.82072C0.316278 9.94706 0.482247 10.0105 0.648097 10.0105C0.813948 10.0105 0.979798 9.94706 1.10614 9.82072L4.99995 5.9268L8.89387 9.82072C9.02022 9.94706 9.18607 10.0105 9.35192 10.0105C9.51777 10.0105 9.68362 9.94706 9.80996 9.82072C10.0634 9.56744 10.0634 9.15791 9.80996 8.90463L5.91616 5.01071Z" fill="#BDBDBD"/>
</svg>
