<svg width="6" height="10" viewBox="0 0 6 10" fill="none" xmlns="http://www.w3.org/2000/svg">
<path d="M5.45946 0.159839L5.7893 0.487403C5.89231 0.590493 5.94906 0.727648 5.94906 0.874234C5.94906 1.02074 5.89231 1.15806 5.7893 1.26115L2.05252 4.99776L5.79345 8.73869C5.89646 8.84162 5.95312 8.97893 5.95312 9.12544C5.95312 9.27195 5.89646 9.40934 5.79345 9.51235L5.46564 9.84C5.25247 10.0533 4.90523 10.0533 4.69206 9.84L0.222021 5.38598C0.119093 5.28305 0.0465722 5.1459 0.0465722 4.99809V4.99638C0.0465722 4.8498 0.119175 4.71264 0.222021 4.60971L4.67994 0.159839C4.78287 0.0567484 4.92417 0.000163078 5.07068 0C5.21727 0 5.35662 0.0567484 5.45946 0.159839Z" fill="#BCBCBC"/>
</svg>
