<svg width="6" height="10" viewBox="0 0 6 10" fill="none" xmlns="http://www.w3.org/2000/svg">
<path d="M0.540538 0.159839L0.210698 0.487403C0.107689 0.590493 0.0509402 0.727648 0.0509402 0.874234C0.0509402 1.02074 0.107689 1.15806 0.210698 1.26115L3.94748 4.99776L0.206551 8.73869C0.103542 8.84162 0.046875 8.97893 0.046875 9.12544C0.046875 9.27195 0.103542 9.40934 0.206551 9.51235L0.534359 9.84C0.747531 10.0533 1.09477 10.0533 1.30794 9.84L5.77798 5.38598C5.88091 5.28305 5.95343 5.1459 5.95343 4.99809V4.99638C5.95343 4.8498 5.88083 4.71264 5.77798 4.60971L1.32006 0.159839C1.21713 0.0567484 1.07583 0.000163078 0.929321 0C0.782735 0 0.643384 0.0567484 0.540538 0.159839Z" fill="#336CFB"/>
</svg>
